{
	"asset":{
		"generator":"Khronos glTF Blender I/O v3.5.30",
		"version":"2.0"
	},
	"scene":0,
	"scenes":[
		{
			"name":"Scene",
			"nodes":[
				0
			]
		}
	],
	"nodes":[
		{
			"mesh":0,
			"name":"FOGUETAO",
			"rotation":[
				0.7071068286895752,
				0,
				0,
				0.7071068286895752
			],
			"translation":[
				0,
				1.6456670761108398,
				0
			]
		}
	],
	"materials":[
		{
			"doubleSided":true,
			"name":"Default OBJ",
			"pbrMetallicRoughness":{}
		},
		{
			"doubleSided":true,
			"name":"Material.001",
			"pbrMetallicRoughness":{}
		}
	],
	"meshes":[
		{
			"name":"FOGUETAO",
			"primitives":[
				{
					"attributes":{
						"POSITION":0,
						"NORMAL":1
					},
					"indices":2,
					"material":0
				},
				{
					"attributes":{
						"POSITION":3,
						"NORMAL":4
					},
					"indices":5,
					"material":1
				}
			]
		}
	],
	"accessors":[
		{
			"bufferView":0,
			"componentType":5126,
			"count":1122424,
			"max":[
				1.5691583156585693,
				1.2608270645141602,
				1.6481237411499023
			],
			"min":[
				-1.2608270645141602,
				-1.3130769729614258,
				-2.2401623725891113
			],
			"type":"VEC3"
		},
		{
			"bufferView":1,
			"componentType":5126,
			"count":1122424,
			"type":"VEC3"
		},
		{
			"bufferView":2,
			"componentType":5125,
			"count":1991463,
			"type":"SCALAR"
		},
		{
			"bufferView":3,
			"componentType":5126,
			"count":108746,
			"max":[
				1.5862462520599365,
				1.3574578762054443,
				1.721685528755188
			],
			"min":[
				-1.38974928855896,
				-1.631650686264038,
				-2.2401623725891113
			],
			"type":"VEC3"
		},
		{
			"bufferView":4,
			"componentType":5126,
			"count":108746,
			"type":"VEC3"
		},
		{
			"bufferView":5,
			"componentType":5125,
			"count":193356,
			"type":"SCALAR"
		}
	],
	"bufferViews":[
		{
			"buffer":0,
			"byteLength":13469088,
			"byteOffset":0,
			"target":34962
		},
		{
			"buffer":0,
			"byteLength":13469088,
			"byteOffset":13469088,
			"target":34962
		},
		{
			"buffer":0,
			"byteLength":7965852,
			"byteOffset":26938176,
			"target":34963
		},
		{
			"buffer":0,
			"byteLength":1304952,
			"byteOffset":34904028,
			"target":34962
		},
		{
			"buffer":0,
			"byteLength":1304952,
			"byteOffset":36208980,
			"target":34962
		},
		{
			"buffer":0,
			"byteLength":773424,
			"byteOffset":37513932,
			"target":34963
		}
	],
	"buffers":[
		{
			"byteLength":38287356,
			"uri":"foguete.bin"
		}
	]
}
